<mxfile host="app.diagrams.net" agent="Mozilla/5.0 (X11; Linux x86_64; rv:134.0) Gecko/20100101 Firefox/134.0" version="26.0.11">
  <diagram name="Page-1" id="a0kOet_RmRZwjkiKc8g5">
    <mxGraphModel dx="1395" dy="651" grid="1" gridSize="10" guides="1" tooltips="1" connect="1" arrows="1" fold="1" page="1" pageScale="1" pageWidth="850" pageHeight="1100" math="0" shadow="0">
      <root>
        <mxCell id="0" />
        <mxCell id="1" parent="0" />
        <mxCell id="uhr4D31XR44uIUP4gF2C-8" style="edgeStyle=orthogonalEdgeStyle;rounded=0;orthogonalLoop=1;jettySize=auto;html=1;exitX=0.5;exitY=1;exitDx=0;exitDy=0;entryX=0.5;entryY=0;entryDx=0;entryDy=0;" edge="1" parent="1" source="uhr4D31XR44uIUP4gF2C-6" target="uhr4D31XR44uIUP4gF2C-7">
          <mxGeometry relative="1" as="geometry" />
        </mxCell>
        <mxCell id="uhr4D31XR44uIUP4gF2C-6" value="Panel update" style="rounded=1;whiteSpace=wrap;html=1;" vertex="1" parent="1">
          <mxGeometry x="305" y="100" width="120" height="60" as="geometry" />
        </mxCell>
        <mxCell id="uhr4D31XR44uIUP4gF2C-10" style="edgeStyle=orthogonalEdgeStyle;rounded=0;orthogonalLoop=1;jettySize=auto;html=1;exitX=0.5;exitY=1;exitDx=0;exitDy=0;entryX=0.5;entryY=0;entryDx=0;entryDy=0;" edge="1" parent="1" source="uhr4D31XR44uIUP4gF2C-7" target="uhr4D31XR44uIUP4gF2C-9">
          <mxGeometry relative="1" as="geometry" />
        </mxCell>
        <mxCell id="uhr4D31XR44uIUP4gF2C-7" value="Align all text objects within panel right next to each other" style="rounded=1;whiteSpace=wrap;html=1;" vertex="1" parent="1">
          <mxGeometry x="305" y="210" width="120" height="60" as="geometry" />
        </mxCell>
        <mxCell id="uhr4D31XR44uIUP4gF2C-12" style="edgeStyle=orthogonalEdgeStyle;rounded=0;orthogonalLoop=1;jettySize=auto;html=1;exitX=0.5;exitY=1;exitDx=0;exitDy=0;entryX=0.5;entryY=0;entryDx=0;entryDy=0;" edge="1" parent="1" source="uhr4D31XR44uIUP4gF2C-9" target="uhr4D31XR44uIUP4gF2C-11">
          <mxGeometry relative="1" as="geometry" />
        </mxCell>
        <mxCell id="uhr4D31XR44uIUP4gF2C-9" value="Call panel quantity update" style="rounded=1;whiteSpace=wrap;html=1;" vertex="1" parent="1">
          <mxGeometry x="305" y="340" width="120" height="60" as="geometry" />
        </mxCell>
        <mxCell id="uhr4D31XR44uIUP4gF2C-11" value="Query database for current quantity value stored in database" style="rounded=1;whiteSpace=wrap;html=1;" vertex="1" parent="1">
          <mxGeometry x="305" y="470" width="120" height="60" as="geometry" />
        </mxCell>
        <mxCell id="uhr4D31XR44uIUP4gF2C-13" value="Quantity has changed since last update" style="rhombus;whiteSpace=wrap;html=1;" vertex="1" parent="1">
          <mxGeometry x="306.25" y="590" width="117.5" height="120" as="geometry" />
        </mxCell>
        <mxCell id="uhr4D31XR44uIUP4gF2C-14" value="Write new quantity value to database" style="rounded=1;whiteSpace=wrap;html=1;" vertex="1" parent="1">
          <mxGeometry x="490" y="620" width="120" height="60" as="geometry" />
        </mxCell>
        <mxCell id="uhr4D31XR44uIUP4gF2C-16" value="Scroll box update" style="rounded=1;whiteSpace=wrap;html=1;" vertex="1" parent="1">
          <mxGeometry x="900" y="100" width="120" height="60" as="geometry" />
        </mxCell>
        <mxCell id="uhr4D31XR44uIUP4gF2C-17" value="Remove all panels within scroll box" style="rounded=1;whiteSpace=wrap;html=1;" vertex="1" parent="1">
          <mxGeometry x="900" y="210" width="120" height="60" as="geometry" />
        </mxCell>
        <mxCell id="uhr4D31XR44uIUP4gF2C-18" value="For every food item currently in the database, make a new panel" style="rounded=1;whiteSpace=wrap;html=1;" vertex="1" parent="1">
          <mxGeometry x="885" y="310" width="150" height="60" as="geometry" />
        </mxCell>
        <mxCell id="uhr4D31XR44uIUP4gF2C-19" value="Add name and expiration date to every panel" style="rounded=1;whiteSpace=wrap;html=1;" vertex="1" parent="1">
          <mxGeometry x="900" y="410" width="120" height="60" as="geometry" />
        </mxCell>
        <mxCell id="uhr4D31XR44uIUP4gF2C-20" value="Add each panel to the scroll box" style="rounded=1;whiteSpace=wrap;html=1;" vertex="1" parent="1">
          <mxGeometry x="900" y="510" width="120" height="60" as="geometry" />
        </mxCell>
      </root>
    </mxGraphModel>
  </diagram>
</mxfile>
